<svg version="1.2" xmlns="http://www.w3.org/2000/svg" viewBox="0 0 200 200" width="200" height="200"><defs><clipPath clipPathUnits="userSpaceOnUse" id="cp1"><path d="m200 0v200h-200v-200z"/></clipPath><clipPath clipPathUnits="userSpaceOnUse" id="cp2"><path d="m200 0v200h-200v-200z"/></clipPath><clipPath clipPathUnits="userSpaceOnUse" id="cp3"><path d="m200 0v200h-200v-200z"/></clipPath><clipPath clipPathUnits="userSpaceOnUse" id="cp4"><path d="m200 0v200h-200v-200z"/></clipPath><clipPath clipPathUnits="userSpaceOnUse" id="cp5"><path d="m200 0v200h-200v-200z"/></clipPath><clipPath clipPathUnits="userSpaceOnUse" id="cp6"><path d="m200 0v200h-200v-200z"/></clipPath><clipPath clipPathUnits="userSpaceOnUse" id="cp7"><path d="m200 0v200h-200v-200z"/></clipPath><clipPath clipPathUnits="userSpaceOnUse" id="cp8"><path d="m200 0v200h-200v-200z"/></clipPath><clipPath clipPathUnits="userSpaceOnUse" id="cp9"><path d="m200 0v200h-200v-200z"/></clipPath><clipPath clipPathUnits="userSpaceOnUse" id="cp10"><path d="m200 0v200h-200v-200z"/></clipPath><clipPath clipPathUnits="userSpaceOnUse" id="cp11"><path d="m200 0v200h-200v-200z"/></clipPath><clipPath clipPathUnits="userSpaceOnUse" id="cp12"><path d="m200 0v200h-200v-200z"/></clipPath><clipPath clipPathUnits="userSpaceOnUse" id="cp13"><path d="m200 0v200h-200v-200z"/></clipPath><clipPath clipPathUnits="userSpaceOnUse" id="cp14"><path d="m200 0v200h-200v-200z"/></clipPath></defs><style>.a{fill:#a6db68}.b{fill:#c6e896}.c{fill:#599731}.d{fill:#66a53a}.e{fill:#396128}.f{fill:#fff}</style><path fill-rule="evenodd" class="a" d="m199.9 0.1v199.9h-199.9v-199.9z"/><path fill-rule="evenodd" class="b" d="m62.8 73.5l2.7-3.5 2.7-3.5h-5.4-5.3l2.7 3.5z"/><path fill-rule="evenodd" class="c" d="m101.7 122.9l5-66.4h-14.8l-4.3 39.6 6.1-12.7 2.6 39.5z"/><g clip-path="url(#cp1)"><path fill-rule="evenodd" class="c" d="m100 178.3c32 0 58.1-1.1 58.1-2.3 0-1.3-26.1-2.4-58.1-2.4-32 0-58.2 1.1-58.2 2.4 0 1.2 26.2 2.3 58.2 2.3z"/></g><g clip-path="url(#cp2)"><path fill-rule="evenodd" class="d" d="m72.1 122.9h55.8l-6.8 53.7h-42.2z"/></g><g clip-path="url(#cp3)"><path fill-rule="evenodd" class="c" d="m72.1 122.9l43.5 8.8-3.6 35-33.1 9.9h42.2l6.8-53.7z"/></g><g clip-path="url(#cp4)"><path fill-rule="evenodd" class="a" d="m92.9 146.2l1.7 15.1-9.6 2.2-2.3-19.3zm-1.3-11.1l0.9 7.4-10.3-2.2-1.1-8.4z"/></g><g clip-path="url(#cp5)"><path fill-rule="evenodd" class="e" d="m100.4 122.9l14.5-75.8h16.9l-25.3 75.8z"/></g><g clip-path="url(#cp6)"><path fill-rule="evenodd" class="c" d="m114.9 47.1l9.7 45.2 7.2-45.2z"/></g><g clip-path="url(#cp7)"><path fill-rule="evenodd" class="e" d="m98.5 122.9l-12.1-56.4h-12.6l20.1 56.4z"/></g><g clip-path="url(#cp8)"><path fill-rule="evenodd" class="c" d="m86.4 66.5l-6.5 33.6-6.1-33.6z"/></g><g clip-path="url(#cp9)"><path fill-rule="evenodd" class="b" d="m97.7 122.9v-73.6c0-4.6-1.9-8.8-4.9-11.9-3-3-7.2-4.9-11.8-4.9h-0.2c-4.6 0-8.8 1.9-11.8 4.9-3 3.1-4.9 7.3-4.9 11.9v11.2h-2.5v-11.2c0-5.3 2.2-10.1 5.6-13.6 3.5-3.5 8.3-5.7 13.6-5.7h0.2c5.3 0 10.1 2.2 13.6 5.7 3.5 3.5 5.6 8.3 5.6 13.6v73.6z"/></g><g clip-path="url(#cp10)"><path fill-rule="evenodd" class="f" d="m62.8 70.7c-3.4 0-6.3-2.8-6.3-6.3 0-3.5 2.9-6.3 6.3-6.3 3.5 0 6.3 2.8 6.3 6.3 0 3.5-2.8 6.3-6.3 6.3z"/></g><g clip-path="url(#cp11)"><path fill-rule="evenodd" class="f" d="m56.5 64.4v9.1l6.3-7.8 6.3 7.8v-9.1l-6.3 1.1z"/></g><g clip-path="url(#cp12)"><path fill-rule="evenodd" class="b" d="m93.7 37.1q-0.6-1.3-0.7-2.6c-0.1-1.4 0.3-2.8 0.9-3.9 0.7-1 1.6-1.9 2.6-2.3q0.2-0.1 0.5-0.2 0.5-0.2 1.1-0.2c1.6 0 2.9 1.3 2.9 2.9 0 1.6-1.3 2.9-2.9 2.9-1.5 0-2.8-1.3-2.9-2.8q-0.1 0.2-0.2 0.4c-0.5 0.9-0.8 1.9-0.8 3.2q0.1 1 0.6 2.1z"/></g><g clip-path="url(#cp13)"><path fill-rule="evenodd" class="b" d="m84.7 31.9q-1.4-0.2-2.5-0.8c-1.3-0.8-2.2-1.8-2.8-3-0.5-1.1-0.7-2.3-0.5-3.4q0-0.2 0.1-0.5 0.1-0.6 0.5-1.1c0.8-1.3 2.6-1.7 4-0.8 1.3 0.9 1.7 2.7 0.8 4-0.9 1.3-2.6 1.7-3.9 0.9q0.1 0.2 0.2 0.4c0.4 0.9 1.1 1.8 2.2 2.4q0.9 0.5 2.1 0.7z"/></g><g clip-path="url(#cp14)"><path fill-rule="evenodd" class="b" d="m89.2 33.3q-1.4-0.2-2.6 0c-1.5 0.3-2.7 1-3.5 1.9-0.9 0.9-1.5 2-1.6 3.1q-0.1 0.2-0.1 0.5-0.1 0.6 0.1 1.2c0.4 1.5 2 2.4 3.5 2 1.6-0.4 2.5-2 2.1-3.5-0.4-1.5-2-2.4-3.5-2.1q0.2-0.2 0.3-0.3c0.7-0.8 1.7-1.3 2.9-1.6q1-0.2 2.2 0z"/></g></svg>