<svg version="1.2" xmlns="http://www.w3.org/2000/svg" viewBox="0 0 35 40" width="35" height="40"><style>.a{fill:#fff}</style><path class="a" d="m29.8 7.6c-3.3-3.3-7.7-5.1-12.3-5.1-9.6 0-17.4 7.8-17.4 17.3 0 3.1 0.8 6.1 2.4 8.7l-2.5 9 9.2-2.4c2.5 1.4 5.4 2.1 8.3 2.1 9.5 0 17.5-7.8 17.5-17.3 0-4.7-2-9-5.2-12.3zm-12.3 26.7c-2.6 0-5.1-0.7-7.4-2l-0.5-0.3-5.4 1.4 1.4-5.3-0.3-0.6c-1.5-2.3-2.2-4.9-2.2-7.7 0-7.9 6.4-14.4 14.4-14.4 3.9 0 7.5 1.5 10.2 4.3 2.7 2.7 4.4 6.3 4.4 10.2 0 7.9-6.7 14.4-14.6 14.4zm7.9-10.8c-0.4-0.2-2.6-1.3-3-1.4-0.4-0.2-0.7-0.2-0.9 0.2-0.3 0.4-1.2 1.4-1.4 1.7-0.3 0.3-0.5 0.3-1 0.1-2.5-1.3-4.2-2.3-5.9-5.2-0.4-0.7 0.5-0.7 1.3-2.3 0.2-0.3 0.1-0.6 0-0.8-0.1-0.2-1-2.3-1.4-3.2-0.3-0.8-0.7-0.7-0.9-0.7q-0.4-0.1-0.9-0.1c-0.2 0-0.7 0.2-1.1 0.6-0.4 0.4-1.5 1.5-1.5 3.6 0 2.1 1.5 4.2 1.7 4.5 0.3 0.3 3.1 4.6 7.4 6.5 2.8 1.2 3.9 1.3 5.2 1.1 0.9-0.1 2.6-1 3-2 0.3-1.1 0.3-1.9 0.2-2.1-0.1-0.2-0.4-0.3-0.8-0.5z"/></svg>