<svg version="1.2" xmlns="http://www.w3.org/2000/svg" viewBox="0 0 16 18" width="16" height="18"><style></style><path  d="m4 5.6h-2.3c-0.9 0-1.7 0.8-1.7 1.7v7.3c0 1.9 1.5 3.4 3.4 3.4h9.2c1.9 0 3.4-1.5 3.4-3.4v-7.3c0-0.9-0.8-1.7-1.7-1.7h-2.3v-1.7c0-2.1-1.8-3.9-4-3.9-2.2 0-4 1.8-4 3.9zm1.7-1.6c0-1.3 1-2.3 2.3-2.3 1.3 0 2.3 1 2.3 2.3v1.6h-4.6zm-0.8 3.4q0.3 0 0.6 0.3 0.2 0.2 0.2 0.6 0 0.3-0.2 0.6-0.3 0.2-0.6 0.2-0.4 0-0.6-0.2-0.3-0.3-0.3-0.6 0-0.4 0.3-0.6 0.2-0.3 0.6-0.3zm5.4 0.9q0-0.4 0.2-0.6 0.3-0.3 0.6-0.3 0.4 0 0.6 0.3 0.3 0.2 0.3 0.6 0 0.3-0.3 0.6-0.2 0.2-0.6 0.2-0.3 0-0.6-0.2-0.2-0.3-0.2-0.6z"/></svg>